<svg width="16" height="16" viewBox="0 0 16 16" fill="none" xmlns="http://www.w3.org/2000/svg">
<path d="M1 16H9.77052C13.2295 16 15 14.4571 15 11.52V11.4743C15 9.29143 13.8744 7.96572 11.7052 7.58857V7.38286C13.5226 7.04 14.4724 5.87429 14.4724 3.97714V3.92C14.4724 1.33714 12.8191 0 9.58291 0H1V16ZM4.45896 6.54857V2.26286H8.55109C10.2044 2.26286 11.0251 2.97143 11.0251 4.36571V4.41143C11.0251 5.82857 10.2044 6.54857 8.55109 6.54857H4.45896ZM4.45896 13.7257V8.62857H8.65662C10.474 8.62857 11.3769 9.47429 11.3769 11.1314V11.1771C11.3769 12.8686 10.474 13.7257 8.65662 13.7257H4.45896Z" fill="#333333"/>
</svg>
